/* XPM */
static char *c96606a14d314a99f7caeba4f139e7deS5693QVWZxW7J0BC[] = {
/* columns rows colors chars-per-pixel */
"32 32 129 2 ",
"   c #257924",
".  c #615E24",
"X  c #755626",
"o  c #5C6023",
"O  c #5C7227",
"+  c #874229",
"@  c #91472D",
"#  c #8C4B37",
"$  c #954A30",
"%  c #9C4D33",
"&  c #A04F33",
"*  c #A35236",
"=  c #A85537",
"-  c #AB5738",
";  c #9E6558",
":  c #B06349",
">  c #986C61",
",  c #A46F63",
"<  c #278326",
"1  c #298429",
"2  c #2C8B2B",
"3  c #2E932C",
"4  c #32952F",
"5  c #339631",
"6  c #339D32",
"7  c #36A234",
"8  c #3AA137",
"9  c #39A438",
"0  c #3CAD3A",
"q  c #3DB23C",
"w  c #4D9C35",
"e  c #4C9539",
"r  c #40B63F",
"t  c #41B93E",
"y  c #438A42",
"u  c #64884A",
"i  c #6A8154",
"p  c #609C5F",
"a  c #4FA54E",
"s  c #43BB41",
"d  c #48BF46",
"f  c #4BB44B",
"g  c #58AF57",
"h  c #5AA459",
"j  c #51B150",
"k  c #5CB55B",
"l  c #7E9F7A",
"z  c #67A465",
"x  c #71A870",
"c  c #72BE70",
"v  c #46C244",
"b  c #48C646",
"n  c #4BCC49",
"m  c #50C04E",
"M  c #4ED24C",
"N  c #50D64E",
"B  c #50D94E",
"V  c #55C953",
"C  c #59C258",
"Z  c #53D452",
"A  c #59D557",
"S  c #54D953",
"D  c #5ED65D",
"F  c #5DDA5C",
"G  c #60D85F",
"H  c #64C563",
"J  c #64D962",
"K  c #69DB67",
"L  c #6ED76D",
"P  c #6CDD6B",
"I  c #71D770",
"U  c #74DB74",
"Y  c #7CD67C",
"T  c #79DE78",
"R  c #77E377",
"E  c #7DE27C",
"W  c #B5877E",
"Q  c #80E57F",
"!  c #A68982",
"~  c #AC938E",
"^  c #B99189",
"/  c #AF9A97",
"(  c #B29590",
")  c #B19D9A",
"_  c #BDADA9",
"`  c #C18D81",
"'  c #C49389",
"]  c #D3B7B1",
"[  c #9ACB99",
"{  c #97DB97",
"}  c #85E683",
"|  c #88E487",
" . c #83E882",
".. c #88E887",
"X. c #8DE58C",
"o. c #8DEA8C",
"O. c #93E192",
"+. c #96EA95",
"@. c #9CE79B",
"#. c #9CED9B",
"$. c #ADC8A6",
"%. c #A2D8A2",
"&. c #B0DBB0",
"*. c #BCD8BC",
"=. c #A5ECA4",
"-. c #ADE9AD",
";. c #B8EBB8",
":. c #CFC1BF",
">. c #D4C0BB",
",. c #D6CFCE",
"<. c #C8D6C8",
"1. c #D5D2CC",
"2. c #DDD0CD",
"3. c #DAD3D2",
"4. c #E0DBDA",
"5. c #C3ECC2",
"6. c #CBE2CA",
"7. c #CFECCE",
"8. c #C4F2C4",
"9. c #D3EAD3",
"0. c #D5F2D5",
"q. c #DCF2DC",
"w. c #E8E1DD",
"e. c #E7E5E5",
"r. c #F0EFEF",
"t. c #E3F2E4",
"y. c #EEF4EE",
"u. c #F2F0EF",
"i. c None",
/* pixels */
"i.i.i.i.i.i.i.i.i.i.i.i.i.i.i.i.i.i.i.i.i.i.i.i.i.i.i.i.i.i.i.i.",
"i.i.i.i.i.i.i.i.i.i.i.i.i.i.i.i.i.i.i.i.i.i.i.i.i.i.i.i.i.i.i.i.",
"i.i.i.i.i.i.i.i.i.i.i.i.i.i.i.i.i.i.i.i.i.i.i.i.i.i.i.i.i.i.i.i.",
"i.i.i.i.i.i.i.i.i.i.i.i.i.i.i.i.i.i.i.i.i.i.i.i.i.i.i.i.i.i.u.i.",
"i.i.i.i.i.i.i.i.i.i.i.i.i.i.t.8.=.O.t.i.i.i.i.i.i.i.i.i.i.i.i.i.",
"i.i.i.i.i.i.i.i.i.i.i.q.q.y.-.P A Z ..i.i.i.i.i.i.i.i.i.i.i.i.i.",
"i.i.i.i.i.i.i.i.i.i.0.I K X.V 9 7 s B -.i.i.i.i.i.i.i.i.i.i.i.i.",
"i.i.i.i.i.i.i.i.i.9.U Z n n n 4 r j s O.i.i.i.i.i.i.i.i.i.i.i.i.",
"i.i.i.i.i.i.i.i.i.5.n s 3 Y L M Z P f Y y.i.i.i.i.i.i.i.i.i.i.i.",
"i.i.i.i.i.i.i.y.0.c 6 y | P n M M 7 b 5 { ;.t.i.i.i.i.i.i.i.i.i.",
"i.i.i.i.i.i.i.-.| P T } D M v q b 0 0 I E E +.q.i.i.i.i.i.i.i.i.",
"i.i.i.i.i.i.u.@.K n n D n 8 g h q n G f F Z J E i.i.i.i.i.i.i.i.",
"i.i.i.i.i.i.i.&.s 6 n q 9 T R K Z A q 0 s M M Z i.i.i.i.i.i.i.i.",
"i.i.i.i.i.i.y.t.%.h 2 5 V M n b V J 3 s q n s P q.y.i.i.i.i.i.i.",
"i.i.i.i.i.t.#.R P E k b s 9 7 7 q 1 5 v 2 5 H +...+.i.i.i.i.i.i.",
"i.i.i.i.i.8.R S M M F M ..A q 1 < 7 s T  .T  .Q Q | 0.i.i.i.i.i.",
"i.i.i.i.i.8.o.C q q M t s S t < o e U o.F b K N S S -.i.i.i.i.i.",
"i.i.i.i.i.*.a s M 3 w u x 7 3 O % . k H 9 d q s b m 7.i.i.i.i.i.",
"i.i.i.i.i.i.q.[ x ! 1.W w.$.~ :.* 1.i 2 1   1 9 z 6.i.i.i.i.i.i.",
"i.i.i.i.i.i.i.i.i.1./ ; ' y.> ] % ,.= X l p <.t.y.i.i.i.i.i.u.i.",
"i.i.i.i.i.i.i.i.i.i.i.4.( ^ >.% = & ~ e.i.i.i.i.i.i.i.i.i.i.i.i.",
"i.i.i.i.i.i.i.i.i.i.i.i.i./ , * - ' r.i.i.i.i.i.i.i.i.i.i.i.i.i.",
"i.i.i.i.i.i.i.i.i.i.i.i.i.i.2.& * 3.i.i.i.i.i.i.i.i.i.i.i.i.i.i.",
"i.i.i.i.i.i.i.i.i.i.i.i.i.i.i.W * 3.i.i.i.i.i.i.i.i.i.i.i.i.i.i.",
"i.i.i.i.i.i.i.i.i.i.i.i.i.i.i.W % _ i.i.i.i.i.i.i.i.i.i.i.i.i.i.",
"i.i.i.i.i.i.i.i.i.i.i.i.i.i.i.` $ _ i.i.i.i.i.i.i.i.i.i.i.i.i.i.",
"i.i.i.i.i.i.i.i.i.i.i.i.i.i.4.: + ! i.i.i.i.i.i.i.i.i.i.i.i.i.i.",
"i.i.i.i.i.i.i.i.i.i.i.i.i.] & & @ # ) i.i.i.i.i.i.i.i.i.i.i.i.i.",
"i.i.i.i.i.i.i.i.i.i.i.i.i.i.i.i.i.i.i.i.i.i.i.i.i.i.i.i.i.i.i.i.",
"i.i.i.i.i.i.i.i.i.i.i.i.i.i.i.i.i.i.i.i.i.i.i.i.i.i.i.i.i.i.i.i.",
"i.i.i.i.i.i.i.i.i.i.i.i.i.i.i.i.i.i.i.i.i.i.i.i.i.i.i.i.i.i.i.i.",
"i.i.i.i.i.i.i.i.i.i.i.i.i.i.i.i.i.i.i.i.i.i.i.i.i.i.i.i.i.i.i.i."
};
