/* XPM */
static char * item2_xpm[] = {
"32 32 165 2",
"  	c #4E990D",
". 	c #57A717",
"+ 	c #509716",
"@ 	c #58A519",
"# 	c #58A818",
"$ 	c #57A518",
"% 	c #5DAE18",
"& 	c #428A0C",
"* 	c #58A416",
"= 	c #5AAD19",
"- 	c #58A317",
"; 	c #58AA17",
"> 	c #519B14",
", 	c #4E9B12",
"' 	c #4B9412",
") 	c #57AA17",
"! 	c #50A013",
"~ 	c #519C0D",
"{ 	c #52A315",
"] 	c #57A918",
"^ 	c #41870C",
"/ 	c #53A416",
"( 	c #428B10",
"_ 	c #61B31C",
": 	c #52A414",
"< 	c #57A319",
"[ 	c #54A20D",
"} 	c #5CA81E",
"| 	c #46910D",
"1 	c #51A40D",
"2 	c #529B1A",
"3 	c #3F860A",
"4 	c #408706",
"5 	c #59AB17",
"6 	c #408806",
"7 	c #62B41B",
"8 	c #FFFCF4",
"9 	c #FFF3CF",
"0 	c #FFDFB7",
"a 	c #FECCA3",
"b 	c #FEEEE4",
"c 	c #FFFAF7",
"d 	c #5CAA17",
"e 	c #FEE6BB",
"f 	c #FFDB84",
"g 	c #FED45A",
"h 	c #FFD467",
"i 	c #FFDE8A",
"j 	c #FFCE85",
"k 	c #FEBC78",
"l 	c #FEF3D4",
"m 	c #FEDC86",
"n 	c #FECB30",
"o 	c #FFCB2D",
"p 	c #FFBE29",
"q 	c #FEBB2A",
"r 	c #FEB325",
"s 	c #FFB927",
"t 	c #FED14D",
"u 	c #FFDE8D",
"v 	c #FECA7B",
"w 	c #FDC28C",
"x 	c #FFF3EA",
"y 	c #FFFDFB",
"z 	c #FEECBC",
"A 	c #FFD66C",
"B 	c #FFC82C",
"C 	c #FFBD2D",
"D 	c #FEB940",
"E 	c #FEC656",
"F 	c #FDD65D",
"G 	c #FEDA6B",
"H 	c #FEC95C",
"I 	c #FEBC4A",
"J 	c #FFD893",
"K 	c #FFB262",
"L 	c #3D8710",
"M 	c #FECE48",
"N 	c #FFC72C",
"O 	c #FDAD2F",
"P 	c #FED762",
"Q 	c #FEDC6E",
"R 	c #FCBD4E",
"S 	c #FED151",
"T 	c #FED568",
"U 	c #FEC03A",
"V 	c #FEDB6C",
"W 	c #FEA948",
"X 	c #FEF3EC",
"Y 	c #FFE6A5",
"Z 	c #FEB939",
"` 	c #FFD456",
" .	c #FED155",
"..	c #FFDD84",
"+.	c #FED16F",
"@.	c #FEDA70",
"#.	c #FEAC4C",
"$.	c #FFD5B9",
"%.	c #55A110",
"&.	c #5BA41C",
"*.	c #FFF7E2",
"=.	c #FFEAAB",
"-.	c #FFDD99",
";.	c #FEE080",
">.	c #FED663",
",.	c #FEDC71",
"'.	c #FECE45",
").	c #FDD486",
"!.	c #FFA11D",
"~.	c #589E1D",
"{.	c #FEE1A1",
"].	c #FFE39B",
"^.	c #FEC264",
"/.	c #FEDF7E",
"(.	c #FEC560",
"_.	c #FECE65",
":.	c #FFCD36",
"<.	c #FFB356",
"[.	c #FFE0CC",
"}.	c #FFC32A",
"|.	c #FED865",
"1.	c #FEDD78",
"2.	c #FEC144",
"3.	c #FECF4C",
"4.	c #FEB875",
"5.	c #4A930D",
"6.	c #FFC42A",
"7.	c #FECD60",
"8.	c #FEDC74",
"9.	c #FDC153",
"0.	c #63B41D",
"a.	c #FFECB4",
"b.	c #FFDE9B",
"c.	c #FECC5F",
"d.	c #FEC658",
"e.	c #FEB150",
"f.	c #FFE394",
"g.	c #FECA62",
"h.	c #FFCF42",
"i.	c #FFCD39",
"j.	c #FEAD22",
"k.	c #FFAB27",
"l.	c #FFDB7E",
"m.	c #FEB730",
"n.	c #FEE28C",
"o.	c #FFD98B",
"p.	c #FFC954",
"q.	c #FFBB2E",
"r.	c #FFB133",
"s.	c #FFBD88",
"t.	c #3F8706",
"u.	c #FEDA75",
"v.	c #FEE189",
"w.	c #FEE599",
"x.	c #FEE292",
"y.	c #FFF5E4",
"z.	c #FEE8D9",
"A.	c #FFF8EA",
"B.	c #FBB429",
"C.	c #FDA120",
"D.	c #FFE6D2",
"E.	c #FFB844",
"F.	c #FFC9A3",
"G.	c #FFE2CF",
"H.	c #4FA012",
"  . + @   # $     % & *   = -     ; & *   ; *   @ > ;     * =   ",
"= & ,   ' & & = ) + ! ~ ' & & ; @ & ,   ' & & $ & ; & @ ! & & @ ",
"$ & # & & { ]   * & ; & ^ /   , $ & # ( ^ / *     , & #   _ ! & ",
"  :   . <   & $   { > * { , & *   :   * @ ~ & @ ) & % [ @ , ~ @ ",
"  # = ~ } & | *   : # [ $ & | - ~ $ = ~ * & | * ~ ,   - < & - , ",
"# ' & *   ; 1 & ) 2 & *   # 1 & # 3 ( : ~ # 1 & @ 4 ; &   { | @ ",
"  5 , & { 6 , -   7 $ & 8 8 9 9 0 a b c > 6 , { ; , 1 | & ; ' * ",
"* 3   d ~ @ #   $ 3 8 e f g g h i f j k a @ )   ~ @ & * @ ~ 5   ",
"  # ~ ] d + @   ~ l m n o p q r s q t u v w x   # ~ @ [ [ @ =   ",
"* & ; & | 1 , y z A B C D E F g G H I C A J K b & ; L - _ ' & @ ",
"# ^ :   & ) 4 e M N O E P P Q R S t G T U V J W X , & ; ~ ; = & ",
"~ ' & / .   ~ Y M Z G G `  ...+.H ` Q @.V B u #.$.& { %.< &   . ",
"&.%.& * ~ @ *.=.-.H Q ` g Q ;.;.H F B >.,.` '.).!.  , @ { ~.| ~ ",
"& , # @ = ' {.].^.>.` g @./.;.;.(._.,.T @.,.:./.<.[.# & , / & * ",
"# & & : @ &  .}.I |./.;.;.;.;.;.1./.|.2.Z @.3.>.<.4.1 | & @ & @ ",
", = @ 5.  @ m 6.7.>.>./.8.8.8.1.G T t }.9.@.S h <.#.& * ; ~ # ~ ",
"0.%.0.    @ a.b.c.G t >.V F V g  .n p d.,.,.8.F e.#.'   ~ # ~ @ ",
"^ # , * % 5.f.{.g.,.F >.:.h.B i.i.B I @.Q ,.m B j.#.& / %., ; ^ ",
"  , & = , # g 3.2.A ,.G B o B o o B k.7.@.l.Y T j.$.; > @ & &   ",
"* & * ~ . | l N 6.c.,.c.B o j.m.U B r 7.@.].n.v !.b , { [ { & . ",
"  1   { < 3 ' o.o g 1.p.q.R h Q 8._.r.h f.g B j.s.' & $ / ~ , ~ ",
"@ t.d &   ) & *.S '.u.v.T ,.@.,.,.,.8.w.x.'.j.#.b | {   & # 4 - ",
"# , 1 ' & * & * y.g B 1.f.v.v.@.n.x.m x.=.^.!.z.@ | # & ' 1 , # ",
"  { & < - ~ ;     A.B.B B B >.u.'.B o 6.e.C.D.& ~ # ~ : $ & @   ",
"  ; $   -   3 ) ~ ; * a E.}.}.}.}.q k.r.F.b ; ~ @ ^ ~ ]   . ;   ",
"@ , 4 , & , =   * > 6 ! x G.a F.a F.G.x , 4 > @   # > &   6 , ; ",
"& 1 5   { & & @ & 1 ; > - & & . # & & {   ; 1 & # & & * > ; 1 & ",
"@ & & ) [ ; )   * & & - [ # -     @ ; 1 - & & -   * 5 ~ - & & . ",
"] & , $ - ~ {   @ & ~ - {   :     {   { - , & @ ~ %   # {   & : ",
"~ # : 3 & @ & @ ~ ; { & + ; & ! @ & # & + / # ~ @ & ] + & * # > ",
"; & & '   H.& @ ; & , ' > , & @ ; & {   , ^ > 5 # + ,   ' & & 5 ",
"  @ *   ) & @     @ # ~ * & @ , ~ @ & @ ~ # /     # & @ ~ # * ~ "};
