/* XPM */
static char *aba9f68179dd4a2dc96df7e7b6db24d91BxDoVVIP0nR0UUk[] = {
/* columns rows colors chars-per-pixel */
"32 32 75 1 ",
"  c #3F0816",
". c #550B0F",
"X c #5F0B0F",
"o c #400816",
"O c #4B0914",
"+ c #400718",
"@ c #410A19",
"# c #550A12",
"$ c #570F18",
"% c #571716",
"& c #591715",
"* c #581814",
"= c #5B171D",
"- c #5A1B1B",
"; c #69180F",
": c #71190C",
"> c #611713",
", c #611813",
"< c #691811",
"1 c #5E2316",
"2 c #5D2319",
"3 c #75240E",
"4 c #7A220E",
"5 c #7E2B0F",
"6 c #672314",
"7 c #6C2113",
"8 c #6E2618",
"9 c #6F281B",
"0 c #732211",
"q c #712B15",
"w c #7C2912",
"e c #7A2C18",
"r c #753314",
"t c #753418",
"y c #6A2926",
"u c #832A0D",
"i c #842A0F",
"p c #87320F",
"a c #8B310E",
"s c #8B300F",
"d c #8B310F",
"f c #8C310E",
"g c #8C300F",
"h c #822A10",
"j c #832A10",
"k c #813112",
"l c #803212",
"z c #803213",
"x c #873111",
"c c #863210",
"v c #8B3010",
"b c #8B3211",
"n c #8C3110",
"m c #8F3710",
"M c #8B3214",
"N c #853912",
"B c #843913",
"V c #8F3910",
"C c #83301B",
"Z c #8B391E",
"A c #8D3A1F",
"S c #923D11",
"D c #923E10",
"F c #923E11",
"G c #964312",
"H c #964313",
"J c #964412",
"K c #964512",
"L c #944115",
"P c #994A12",
"I c #994814",
"U c #914126",
"Y c #914227",
"T c #954C27",
"R c #934328",
/* pixels */
"FFFFFFF&NFFFFF0FF5OLFFFF7XO1FFFF",
"ddddddd7Vddddddddd*hdvddx3xqvvdd",
"ddddffd,MfffddddddOvffdvFVd2Vvdd",
"dddd4;:O034#4dd3uw u0hdfdu>&dkww",
"rrr1+r1r1rrrr 1rrrrrrrr+1rrrrr+1",
"fnfxrnmfVdnnd7FdVvVvnmn7FdFvdV7f",
"vvv4rvfvddndv<Ldvddvddd7Ffddvv7n",
"dvf;qvvvvdvhM7Vvdvduvvv7vvdvvn7v",
"7,,O 77#77OO# *77>7%,,, &77>7O &",
"FHFHL51L5KKKGLD51FFFFLIKFk NFKFF",
"ddndddrddddddddvrhddfdvvvdrvdvvv",
"dddddwrddddddddvOudddddduv ddddd",
"ffddd;*dfffff0ww+0;wu0udV**7ddff",
"rrrrrr6#O ######r 1rrrrrrrrrr 1r",
"VVddVdddsrvvdvddv7LdVVVddVddd7Ld",
"ddddddaawrMvvvddv7Tvddddddddd7Fd",
"dddpddduhtUCeURUAyeAUZddddddd,0v",
"7777777*O -O=88-$@-98887O777# O7",
"DDrLp1JHKKF56LFKLKl1HPKKDF51GPLN",
"ddVdsrdddndvtMdddbf2ddddddvtdddv",
"dddddqdddsddqdddddd2dddddffrdddd",
"ddddd7d53ddd75vduddOrddddfu>vdvd",
"7777* 771O7& O.7*,* *777>&Oo,7.&",
"G5BrNF*rFFFPFF*NKHFp4+w4443DJDL*",
"idvvVd7Lvddddd7FddfMM<Fvvvddddd7",
"dddvbd7Vvvdddd8Vvffff70nvvvvddfO",
"dddnv4O;hvdd<<*wfffh<ownfvffj<u*",
"11 rtrr#### O#6tttttrr1+tttttrrr",
"vvrvvdfddd58kdvVMfMfMdftfMVnMMfF",
"vvrddbdbdvf7Ldvvffdfd5wrfddfnfvf",
"d0qfvfduwfv,7dnfffdddpX8ff4fdddd",
"Ooo7,77qO*. *7,77777.  o,#OO777,"
};
