/* XPM */
static char * player2_xpm[] = {
"32 32 81 1",
" 	c #4E990D",
".	c #57A717",
"+	c #509716",
"@	c #58A519",
"#	c #58A818",
"$	c #57A518",
"%	c #5DAE18",
"&	c #428A0C",
"*	c #58A416",
"=	c #5AAD19",
"-	c #58A317",
";	c #58AA17",
">	c #519B14",
",	c #4E9B12",
"'	c #4B9412",
")	c #57AA17",
"!	c #50A013",
"~	c #519C0D",
"{	c #52A315",
"]	c #57A918",
"^	c #E3E3E3",
"/	c #428B10",
"(	c #41870C",
"_	c #53A416",
":	c #61B31C",
"<	c #52A414",
"[	c #57A319",
"}	c #7F594B",
"|	c #33A93A",
"1	c #4EB854",
"2	c #4BB050",
"3	c #6B4B44",
"4	c #54A20D",
"5	c #5CA81E",
"6	c #46910D",
"7	c #000000",
"8	c #80C14B",
"9	c #8BC44A",
"0	c #51A40D",
"a	c #795548",
"b	c #408706",
"c	c #59AB17",
"d	c #408806",
"e	c #E1AD86",
"f	c #3F860A",
"g	c #5CAA17",
"h	c #52C057",
"i	c #98D651",
"j	c #714D38",
"k	c #FFEC3B",
"l	c #69474A",
"m	c #3D8710",
"n	c #EBB58C",
"o	c #FFC206",
"p	c #FFD406",
"q	c #E0A578",
"r	c #EB985D",
"s	c #55A110",
"t	c #5BA41C",
"u	c #ECA06C",
"v	c #589E1D",
"w	c #EBEBEB",
"x	c #4A930D",
"y	c #7D553C",
"z	c #5A2C24",
"A	c #63B41D",
"B	c #FBFBFB",
"C	c #3E50B5",
"D	c #FAFAFA",
"E	c #5A3C47",
"F	c #5B2411",
"G	c #E6E6E6",
"H	c #5B2F27",
"I	c #3F8706",
"J	c #EAAE78",
"K	c #91CD4D",
"L	c #5E3E3D",
"M	c #6B1F1F",
"N	c #673B2D",
"O	c #702020",
"P	c #4FA012",
" .+@ #$  %&* =-  ;&* ;* @>;  *= ",
"=&, '&&=)+!~'&&;@&, '&&$&;&@!&&@",
"$&#&&{] *&^^^^^^^^#/(_*  ,&# :!&",
" < .[ &$ ^}|111123^*@~&@)&%4@,~@",
" #=~5&6* 7289999827^*&6*~, -[&-,",
"#'&* ;0^a2899999982}^#0&@b;& {6@",
" c,&{d^8|899999999828e,{;,06&;'*",
"*f g~@e|h8iiiiiiii88|}) ~@&*@~c ",
" #~]g+ej9}kkkkkkkk}92}) #~@44@= ",
"*&;&6l|2}kkkkkkkkkk}227;&;m-:'&@",
"#(^en}a9okpkkkkko9kk9}3ne^&;~;=&",
"~'^}qq}rkrkkkkkkrrrkr}qq}e{s[& .",
"ts^qqeq9k}kkkkkrruakr}eqqn,@{v6~",
"&,#^au}a}okkko}rqeaor}ua^d#&,_&*",
"#&&<w}rk}oor}}uqeeu}rk}w#,06&@&@",
",=@x }rkayr}}rqqq}}}rkz  @&*;~#~",
"AsA  aorae}}}qeqq}e}ro7* =' ~#~@",
"(#,*%}rr}BCC}eeq}CDqroE(#/&_s,;(",
" ,&=,#e7FeC^,eeG^Cej7}, &6;>@&& ",
"*&*~.6Ge7}qeneenne}He^&#@ ,{4{&.",
" 0 {[f^e2a}qqqqqqqa29^~ ~'&$_~,~",
"@Ig& ^e29}}rqqqqr}}888^*#6{ &#b-",
"#,0'&l89922222222228987#@6#&'0,#",
" {&^zqeq7a22222222azqeeH^#~<$&@ ",
" ;$^7qeq|8}}8kk9}}82qeJ7^(~] .; ",
"@,bGerr}|98}9kkK}892}qre^#>& d,;",
"&0c {}lE78889kki888LEll&#&&*>;0&",
"@&&)4;)^772899998277e&&- *c~-&&.",
"]&,$-~e}M3LHHHHHHH3Hle&@~% #{ &<",
"~#<f&@eFMNLzl^^}zLNOF}#~@&]+&*#>",
";&&' P^}FFL}e,&e}3FF}e>c#+, '&&c",
" @* )&@^777e*&@,^777e#_  #&@~#*~"};
