/* XPM */
static char *_bd1127befd14511ca6c3e68d1761146jjzlWZL2GzIgkRnS[] = {
/* columns rows colors chars-per-pixel */
"32 32 68 1 ",
"  c #3F8706",
". c #3F8806",
"X c #3F860A",
"o c #3D8710",
"O c #408706",
"+ c #408806",
"@ c #41870C",
"# c #428A0C",
"$ c #46910D",
"% c #4A930D",
"& c #4E990D",
"* c #519C0D",
"= c #428B10",
"- c #498D15",
"; c #479114",
": c #4B9412",
"> c #4E9B12",
", c #509716",
"< c #519B14",
"1 c #529B1A",
"2 c #589E1D",
"3 c #54A00C",
"4 c #54A20D",
"5 c #55A10F",
"6 c #50A40D",
"7 c #51A40D",
"8 c #50A40E",
"9 c #4FA012",
"0 c #50A013",
"q c #55A110",
"w c #52A315",
"e c #53A315",
"r c #52A414",
"t c #53A416",
"y c #56A714",
"u c #57A717",
"i c #58A317",
"p c #58A515",
"a c #5BA715",
"s c #58A416",
"d c #57AA17",
"f c #58AA16",
"g c #58AA17",
"h c #59AB17",
"j c #5DA817",
"k c #5CAA17",
"l c #57A319",
"z c #57A518",
"x c #58A519",
"c c #59A41A",
"v c #59A11D",
"b c #5BA41C",
"n c #57A918",
"m c #58A818",
"M c #5AAD19",
"N c #5AAC1A",
"B c #5DAE18",
"V c #5CA81E",
"C c #5FB31B",
"Z c #60B218",
"A c #62B41B",
"S c #61B31C",
"D c #63B41D",
"F c #569C20",
"G c #589D21",
"H c #5DA523",
"J c #5FA825",
"K c #61AC25",
/* pixels */
"&u,x&mz&&B#s&Mi&&g#s&gs&x<g&&sM&",
"M#>&:##Md,0*:##gx#>&:##z#g#x0##x",
"z#m##wn&s#g#@t&>z#m=@ts&&>#m&S0#",
"&r&ul&#z&w<sw>#s&r&sx*#xd#B4x>*x",
"&mM*V#$s&rm4z#$i*zM*s#$s*>&il#i>",
"m:#s&g7#d1#s&m7#mX=r*m7#xOg#&w$x",
"&h>#w+>i&Az#>+>x>m>#<+>wg>7$#g:s",
"sX&k*xm&zX&m&sx*sX*k*xd&*x#sx*h&",
"&m*nk,x&*x*ix#x**m#u*>d&m*x44xM&",
"s#g#$7>mr$m#$7>gm#>>%##g#goiS:#x",
"m@r&#dOgM$g&#gOzz%m##wd*&>#g*gM#",
"*:#tu&*&*:$Bu>&&&u&zx&#<g#wql#&u",
"bq#s*x#si*>w*k#u&lm4z#>s&&>xw2$*",
"#>mxM:>&#0g*B#>&n#@x*m7#x+m#>t#s",
"m##rx#m+g##wi#x@>m--&.>um>7$#x#x",
">Mx%&x&k*wv1<2<Hb=GJ<H>&&x#sg*m*",
"DqD&&xM&k*V2GK1,1l2F2Kws&M:&*m*x",
"@m>sB%#z#m#xw>=xx#=wz#m@m=#tq>g@",
"&>#M>m>#*>#k>S>##Mm&g#>&#$g<x##&",
"s#s*u$>zi#i*w,*ix&;sqz#mx&>w4w#u",
"&7&wlX:&&&&ul#:7&:@kl&*&*:#zt*>*",
"x k#&d#Mi+M#&u#dm#r&#m+sm$w&#mOi",
"m>7:#s#sx>7$#h#0z,m#$7>mx$m#:7>m",
"&w#li*g&&u#is*Z%&M*xx#x#*m*rz#x&",
"&gz&i&Xd*gs*w<@si#*i*ig*x@*n&ug&",
"x>O>#>M&s<+0#>g&&x>#>O<x&m<#&+>g",
"#7h&w##x#7g<i##um##w&g7#m##s<g7#",
"x##d4gd&s##i4mi&&xg7i##i&sh*i##u",
"n#>zi*w&x#*iw&r&&w&wi>#x*B&mw&#r",
"*mrX#x#x*gw#,g#0x#m#,tm*x#n,#sm<",
"g##:&9#xg#>:<>#xg#w&>@<hm,>&:##h",
"&xs&d#x&&xm*s#x>*x#x*mt&&m#x*ms*"
};
